<?xml version="1.0" encoding="UTF-8" standalone="no"?>
<svg
   viewBox="0 0 16 16"
   version="1.1"
   id="svg4297"
   sodipodi:docname="mintdrivers-offline-symbolic.svg"
   inkscape:version="1.1.2 (0a00cf5339, 2022-02-04)"
   xmlns:inkscape="http://www.inkscape.org/namespaces/inkscape"
   xmlns:sodipodi="http://sodipodi.sourceforge.net/DTD/sodipodi-0.dtd"
   xmlns="http://www.w3.org/2000/svg"
   xmlns:svg="http://www.w3.org/2000/svg">
  <defs
     id="defs4301" />
  <sodipodi:namedview
     id="namedview4299"
     pagecolor="#ffffff"
     bordercolor="#666666"
     borderopacity="1.0"
     inkscape:pageshadow="2"
     inkscape:pageopacity="0.0"
     inkscape:pagecheckerboard="0"
     showgrid="false"
     inkscape:zoom="32"
     inkscape:cx="7.890625"
     inkscape:cy="14.15625"
     inkscape:window-width="1280"
     inkscape:window-height="1352"
     inkscape:window-x="1280"
     inkscape:window-y="0"
     inkscape:window-maximized="0"
     inkscape:current-layer="svg4297" />
  <path
     id="path4295"
     style="text-indent:0;text-decoration-line:none;text-transform:none;fill:#808080;fill-opacity:1"
     d="m 8.640625,1.6679688 c -2.158,0.002 -3.9931406,1.3314218 -4.8691406,3.2324218 l -0.060547,0.1289063 -0.1386719,0.00977 C 1.5782656,5.1830625 0,6.9098125 0,9.0078125 0,11.200813 1.7158906,13 3.8378906,13 l 6.1537158,0.0019 0.00495,-0.99409 L 3.8378906,12 c -1.5559987,-0.002 -2.83984372,-1.320187 -2.83984372,-2.9921875 0,-1.597 1.18648442,-2.8656563 2.64648432,-2.9726563 L 4.3671875,5.984375 4.6777344,5.3222656 v -0.00391 c 0.728,-1.58 2.2129375,-2.6484375 3.9609375,-2.6484375 l 0.00195,-0.00195 c 2.3680001,0.002 4.2912971,1.9522656 4.4042971,4.4472656 V 7.125 l 0.05078,0.7753906 0.703125,0.296875 c 0.730796,0.304923 1.203607,1.0226374 1.195313,1.8144534 4.71e-4,0.05255 -0.0026,0.104838 -0.0059,0.15625 h 1.003907 C 15.994797,10.116099 16,10.064215 16,10.011719 16.004217,8.8199278 15.292794,7.7420137 14.195312,7.2773438 L 14.058594,7.21875 14.048828,7.0703125 c -0.135,-2.993 -2.487297,-5.4003437 -5.4042968,-5.4023437 z m 7.351563,8.5000002 c -10.6614587,-6.778646 -5.330729,-3.389323 0,0 z m -5.9956302,1.839882 c -6.7695313,-7.9999999 -3.3847657,-3.9999999 0,0 z"
     sodipodi:nodetypes="ccccssccssccccccccccccccccccccccc" />
  <path
     style="color:#bebebe;fill:#808080;fill-opacity:1"
     d="m 11.007768,11.007011 h 1.375 l 1.125,1.0938 1.093799,-1.0938 h 1.406201 v 1.4688 l -1.093801,1.0625 1.093801,1.062498 v 1.406194 h -1.437501 l -1.062499,-1.062496 -1.0625,1.062496 h -1.4375 v -1.406194 l 1.0625,-1.062498 -1.0625,-1.0625 z"
     id="path20031" />
</svg>
